<svg xmlns="http://www.w3.org/2000/svg" width="512" height="173" viewBox="0 0 512 173"><g fill="none" fill-rule="evenodd"><path fill="#1B52E4" d="M77.24 0L64.31 39l1.33 25.86L86.78 86l-21.14 21.17-1.33 25.87 12.93 39c-5-.53-9.87-1.49-14.58-2.83l-8.67-26.15-21.32 10.72a87.02 87.02 0 01-10.1-9.43l28.94-14.53.95-18.63-18.64.95-14.23 28.77a86.7 86.7 0 01-8.41-12.22l9.4-19.03-18.88-6.18A86.67 86.67 0 010 89.3l30.62 10.03 25.85-1.32 11.99-12-11.99-11.99-25.85-1.32L0 82.74c.18-4.84.76-9.58 1.7-14.19l18.88-6.17-9.4-19.03a86.7 86.7 0 018.4-12.23L33.83 59.9l18.64.96-.95-18.63-28.94-14.54c3.1-3.4 6.48-6.55 10.1-9.42l21.32 10.71 8.67-26.14A86.12 86.12 0 0177.24 0z"/><path fill="#FF1AA4" d="M139.99 18.12A86.35 86.35 0 01173.5 86.5a86.35 86.35 0 01-33.52 68.38l-13.48-13.5a77.11 77.11 0 0022.73-54.88c0-20.5-7.89-39.8-22.24-54.4l-.5-.5L140 18.13z"/><path fill="#FF1AA4" fill-rule="nonzero" d="M115.2 42.9l-14.52 14.53a40.84 40.84 0 0112.04 29.07c0 10.98-4.28 21.3-12.04 29.07l14.51 14.52a61.24 61.24 0 0018.06-43.59 61.24 61.24 0 00-18.06-43.6z"/><circle cx="87.34" cy="86.5" r="13.57" fill="#FF1AA4"/><path fill="#FF1AA4" fill-rule="nonzero" d="M240.74 151.41c4.31 0 8.04-.8 11.18-2.4a17.2 17.2 0 007.14-6.42 16.6 16.6 0 002.44-8.74c0-3.64-.87-6.59-2.6-8.83a16.75 16.75 0 00-6.23-5.04 68.42 68.42 0 00-9.33-3.36 69.75 69.75 0 01-6.5-2.23 11.86 11.86 0 01-3.87-2.52 5.3 5.3 0 01-1.56-3.9c0-2.25.69-3.96 2.06-5.13 1.37-1.18 3.2-1.77 5.5-1.77 2.64 0 4.75.66 6.35 1.98a6.72 6.72 0 012.56 5h12.94c-.39-5.27-2.48-9.37-6.26-12.31-3.78-2.95-8.7-4.42-14.75-4.42-4.03 0-7.62.69-10.75 2.06a16.57 16.57 0 00-7.31 5.93 15.85 15.85 0 00-2.6 9.07c0 3.7.85 6.66 2.55 8.87a16.26 16.26 0 006.14 4.96c2.38 1.09 5.48 2.2 9.29 3.32 2.8.78 5 1.5 6.6 2.14 1.59.64 2.92 1.53 3.98 2.65a5.97 5.97 0 011.6 4.28c0 2.13-.78 3.85-2.35 5.17-1.57 1.32-3.73 1.98-6.47 1.98-2.7 0-4.8-.7-6.35-2.1a8.15 8.15 0 01-2.56-5.72h-12.6c.05 3.59 1.03 6.7 2.93 9.33 1.9 2.63 4.5 4.65 7.78 6.05 3.28 1.4 6.96 2.1 11.05 2.1zm42.69-.59V92.16h-11.77v58.66h11.77zm38.74.5c5.04 0 9.6-1.04 13.66-3.14a28.47 28.47 0 009.96-8.37 27.56 27.56 0 005.04-11.34v-10.25h-31.77v8.99h20.17c-.9 4.26-2.77 7.58-5.63 9.96-2.86 2.38-6.53 3.57-11 3.57-3.65 0-6.84-.79-9.59-2.36a16.36 16.36 0 01-6.43-6.72 21.63 21.63 0 01-2.3-10.25c0-3.81.75-7.17 2.26-10.09a16.25 16.25 0 016.3-6.72 18 18 0 019.25-2.35c3.13 0 5.88.64 8.23 1.93a13.77 13.77 0 015.55 5.63h13.53a24.67 24.67 0 00-10.09-13.57c-4.87-3.22-10.61-4.83-17.22-4.83-5.6 0-10.69 1.27-15.26 3.82a27.74 27.74 0 00-10.75 10.67 30.73 30.73 0 00-3.91 15.5 30.5 30.5 0 003.9 15.47c2.61 4.54 6.2 8.08 10.76 10.63a30.92 30.92 0 0015.34 3.83zm49.16-.5v-40.25l26.64 40.25h11.77V92.08h-11.77v40.34l-26.64-40.34h-11.76v58.74h11.76zm58.74 0l3.87-11.17h23.36l3.87 11.17h12.44l-21.1-58.74h-13.7l-21.09 58.74h12.35zm24.04-20.59h-16.98l8.5-24.54 8.48 24.54zm58.49 20.6v-9.34h-19.33V92.16h-11.76v58.66h31.09zM241 80.03c6.15 0 11.57-1.2 16.25-3.61s8.3-5.81 10.84-10.21c2.55-4.4 3.83-9.54 3.83-15.42 0-5.89-1.28-11.05-3.83-15.5A25.82 25.82 0 00257.25 25c-4.68-2.41-10.1-3.62-16.26-3.62h-20.5v58.66h20.5zm-.43-10h-8.32V31.3h8.32c6.16 0 10.93 1.72 14.29 5.17 3.36 3.44 5.04 8.22 5.04 14.33 0 6.1-1.68 10.84-5.04 14.2-3.36 3.36-8.13 5.04-14.29 5.04zm50.51 10V55.25h18.74v-9.33h-18.74V30.88h24.46v-9.5H279.3v58.66h11.77zm44.54 0V21.38h-11.77v58.66h11.77z"/></g></svg>