<svg xmlns="http://www.w3.org/2000/svg" width="173" height="173" viewBox="0 0 173 173">
  <g fill="none" fill-rule="evenodd">
    <circle cx="86.5" cy="86.5" r="86.5" fill="#171D2F"/>
    <path fill="#1B52E4" d="M77.0042321,0.482929276 L64.1141227,39.3563502 L65.4314349,65.1429512 L86.5127346,86.2199461 L65.4314349,107.322907 L64.1141227,133.109508 L77.0042321,171.982929 C72.0185836,171.456137 67.1596521,170.504482 62.4643195,169.164846 L53.8253119,143.101278 L32.5643907,153.781591 C28.9640783,150.920582 25.5977332,147.777805 22.4987014,144.386606 L51.3456656,129.898022 L52.2927528,111.326503 L33.7169292,112.277895 L19.5263962,140.958124 C16.3994199,137.154535 13.5917076,133.078539 11.1442346,128.771113 L20.5179778,109.798249 L1.69746627,103.64298 C0.75635634,99.0526287 0.180008334,94.3293088 -4.19220214e-13,89.5046353 L30.5226622,99.5051332 L56.2963486,98.187821 L68.246867,86.2199461 L56.2963486,74.2780376 L30.5226622,72.9607254 L-4.19220214e-13,82.962221 C0.179928876,78.1372009 0.756291465,73.4135462 1.69746627,68.8228784 L20.5179778,62.6676098 L11.1442346,43.694746 C13.5918415,39.3870837 16.3997271,35.3108777 19.5269094,31.5071102 L33.7169292,60.1879633 L52.2927528,61.1393554 L51.3456656,42.5678367 L22.4987014,28.0792528 C25.5977332,24.6880533 28.9640783,21.5452764 32.5643907,18.684268 L53.8253119,29.3645804 L62.4643195,3.30101238 C67.1596521,1.96137633 72.0185836,1.00972131 77.0042321,0.482929276 Z"/>
    <path fill="#FF1AA4" d="M139.81931,18.3492198 C160.147269,34.1242124 173,58.9916901 173,86.7145474 C173,114.437856 159.917211,139.105516 139.588685,154.880476 L126.143744,141.433903 C140.760905,126.818662 148.810258,107.385195 148.810258,86.7145474 C148.810258,66.2755217 140.940147,47.0472823 126.633947,32.4884234 L126.143744,31.9939126 L139.81931,18.3492198 Z"/>
    <path fill="#FF1AA4" fill-rule="nonzero" d="M73.1451931,88.4779481 L87.6209795,102.952455 C95.3613576,95.2107976 105.652862,90.9478323 116.600699,90.9478323 C127.547257,90.9478323 137.839401,95.2107976 145.579779,102.952455 L160.055565,88.4779481 C148.448197,76.8705795 133.016058,70.477411 116.600699,70.477411 C100.184061,70.477411 84.751922,76.8699398 73.1451931,88.4779481 Z" transform="rotate(90 116.6 86.715)"/>
    <circle cx="87.072" cy="86.715" r="13.527" fill="#FF1AA4"/>
  </g>
</svg>
