<svg xmlns="http://www.w3.org/2000/svg" width="512" height="173" viewBox="0 0 512 173">
  <g fill="none" fill-rule="evenodd">
    <path fill="#1B52E4" d="M77.2440639,0 L64.3138079,38.9944932 L65.6352229,64.8614073 L86.7821809,86.0040471 L65.6352229,107.172734 L64.3138079,133.039648 L77.2440639,172.034141 C72.2428874,171.505709 67.3688227,170.55109 62.6588664,169.207281 L53.9929523,143.062538 L32.6658134,153.776114 C29.0542877,150.906195 25.6774581,147.75363 22.5687742,144.351868 L51.5055831,129.818159 L52.45562,111.188799 L33.8219415,112.143155 L19.5872117,140.912709 C16.4504963,137.097273 13.6340394,133.008583 11.1789437,128.68774 L20.5818816,109.655785 L1.70275307,103.481346 C0.758712032,98.8766975 0.180568975,94.1386667 0,89.2989665 L30.6177259,99.3306113 L56.4716851,98.0091963 L68.4594237,86.0040471 L56.4716851,74.0249452 L30.6177259,72.7035302 L0,82.7361758 C0.180489269,77.896128 0.758646955,73.1577614 1.70275307,68.5527958 L20.5818816,62.3783564 L11.1789437,43.3464011 C13.6341737,39.0253224 16.4508045,34.9364211 19.5877265,31.1208066 L33.8219415,59.8909869 L52.45562,60.8453423 L51.5055831,42.215982 L22.5687742,27.6822731 C25.6774581,24.2805116 29.0542877,21.1279464 32.6658134,18.2580273 L53.9929523,28.9716038 L62.6588664,2.8268601 C67.3688227,1.48305172 72.2428874,0.528432746 77.2440639,0 Z"/>
    <path fill="#FF1AA4" d="M139.985621,18.1221533 C160.376892,33.9462775 173.5,58.6904123 173.5,86.4996131 C173.5,114.309267 160.376464,139.053755 139.984624,154.877847 L126.497809,141.389393 C141.160495,126.728633 149.234919,107.23464 149.234919,86.4996131 C149.234919,65.9969295 141.340296,46.7088033 126.989539,32.1046004 L126.497809,31.6085495 L139.985621,18.1221533 Z"/>
    <path fill="#FF1AA4" fill-rule="nonzero" d="M73.3730058,88.2690817 L87.8938775,102.78867 C95.6583631,95.0229008 105.981921,90.7466585 116.963855,90.7466585 C127.944506,90.7466585 138.268706,95.0229008 146.033191,102.78867 L160.554063,88.2690817 C148.910543,76.6255616 133.43034,70.2124814 116.963855,70.2124814 C100.496087,70.2124814 85.0158842,76.6249199 73.3730058,88.2690817 Z" transform="rotate(90 116.964 86.5)"/>
    <circle cx="87.343" cy="86.501" r="13.569" fill="#FF1AA4"/>
    <path fill="#FF1AA4" fill-rule="nonzero" d="M240.738621 151.410742C245.052539 151.410742 248.778196 150.612387 251.915591 149.015677 255.052986 147.418967 257.434045 145.276014 259.058767 142.586818 260.683489 139.897622 261.495851 136.984327 261.495851 133.846932 261.495851 130.205313 260.627465 127.264005 258.890692 125.023009 257.15392 122.782012 255.080998 121.101265 252.671927 119.980767 250.262856 118.860268 247.153473 117.73977 243.34378 116.619272 240.542534 115.778898 238.371569 115.036568 236.830884 114.392282 235.290199 113.747995 234.001626 112.907622 232.965165 111.871161 231.928704 110.8347 231.410473 109.532121 231.410473 107.963423 231.410473 105.722427 232.096779 104.013667 233.469389 102.837144 234.841999 101.660621 236.676815 101.072359 238.973836 101.072359 241.607007 101.072359 243.721948 101.730652 245.318658 103.047237 246.915368 104.363823 247.769747 106.030564 247.881797 108.04746L247.881797 108.04746 260.823552 108.04746C260.431377 102.781119 258.344449 98.6772941 254.562768 95.7359863 250.781086 92.7946785 245.864901 91.3240245 239.81421 91.3240245 235.780417 91.3240245 232.194822 92.0103297 229.057427 93.38294 225.920032 94.7555503 223.482949 96.7304285 221.746176 99.3075744 220.009404 101.88472 219.141018 104.910065 219.141018 108.38361 219.141018 112.081254 219.995398 115.036568 221.704158 117.249552 223.412917 119.462536 225.457827 121.115271 227.838885 122.207757 230.219944 123.300243 233.31532 124.406735 237.125014 125.527233 239.92626 126.311581 242.125238 127.025899 243.721948 127.670186 245.318658 128.314472 246.649249 129.196864 247.713723 130.317363 248.778196 131.437861 249.310433 132.866496 249.310433 134.603268 249.310433 136.732215 248.526084 138.454981 246.957386 139.771566 245.388689 141.088152 243.23173 141.746444 240.486509 141.746444 237.797313 141.746444 235.682373 141.046133 234.141688 139.64551 232.601003 138.244888 231.746623 136.340041 231.578548 133.930969L231.578548 133.930969 218.972943 133.930969C219.028968 137.516564 220.009404 140.625946 221.914251 143.259117 223.819098 145.892288 226.41025 147.909185 229.687707 149.309807 232.965165 150.71043 236.648803 151.410742 240.738621 151.410742zM283.429603 150.82248L283.429603 92.1643982 271.664372 92.1643982 271.664372 150.82248 283.429603 150.82248zM322.170829 151.326704C327.213071 151.326704 331.765095 150.276237 335.826901 148.175303 339.888707 146.074369 343.208183 143.28713 345.785329 139.813585 348.362475 136.340041 350.043223 132.558359 350.827571 128.468541L350.827571 128.468541 350.827571 118.215982 319.061447 118.215982 319.061447 127.20798 339.230415 127.20798C338.334016 131.465873 336.457182 134.785349 333.599911 137.166408 330.742641 139.547467 327.073009 140.737996 322.591016 140.737996 318.949397 140.737996 315.755977 139.953647 313.010756 138.38495 310.265536 136.816252 308.122583 134.575256 306.581898 131.66196 305.041213 128.748665 304.27087 125.331146 304.27087 121.409402 304.27087 117.599708 305.027207 114.238213 306.539879 111.324918 308.052552 108.411622 310.153486 106.170626 312.842682 104.601928 315.531877 103.033231 318.613247 102.248882 322.086792 102.248882 325.224187 102.248882 327.969408 102.893169 330.322454 104.181742 332.6755 105.470315 334.524322 107.347149 335.86892 109.812245L335.86892 109.812245 349.398936 109.812245C347.550114 103.985654 344.188619 99.4616429 339.314452 96.2402105 334.440285 93.0187781 328.697731 91.4080619 322.086792 91.4080619 316.484301 91.4080619 311.40004 92.6826286 306.83401 95.2317621 302.26798 97.7808955 298.682385 101.338477 296.077227 105.904508 293.472069 110.470538 292.169489 115.638836 292.169489 121.409402 292.169489 127.179968 293.472069 132.334259 296.077227 136.872277 298.682385 141.410295 302.26798 144.953871 306.83401 147.503004 311.40004 150.052138 316.512313 151.326704 322.170829 151.326704zM371.332689 150.82248L371.332689 110.568581 397.972534 150.82248 409.737765 150.82248 409.737765 92.0803608 397.972534 92.0803608 397.972534 132.418297 371.332689 92.0803608 359.567457 92.0803608 359.567457 150.82248 371.332689 150.82248zM430.074808 150.82248L433.940527 139.64551 457.302915 139.64551 461.168634 150.82248 473.606164 150.82248 452.512785 92.0803608 438.814694 92.0803608 417.721315 150.82248 430.074808 150.82248zM454.109495 130.233325L437.133947 130.233325 445.621721 105.694414 454.109495 130.233325zM512.599502 150.82248L512.599502 141.494332 493.270908 141.494332 493.270908 92.1643982 481.505676 92.1643982 481.505676 150.82248 512.599502 150.82248zM240.990733 80.0421058C247.153473 80.0421058 252.573884 78.8375702 257.251964 76.428499 261.930044 74.0194278 265.543651 70.6159145 268.092784 66.217959 270.641917 61.8200035 271.916484 56.6797179 271.916484 50.7971022 271.916484 44.9144866 270.641917 39.7461885 268.092784 35.2922081 265.543651 30.8382277 261.930044 27.4067019 257.251964 24.9976307 252.573884 22.5885595 247.153473 21.3840239 240.990733 21.3840239L240.990733 21.3840239 220.485616 21.3840239 220.485616 80.0421058 240.990733 80.0421058zM240.570546 70.0416591L232.250847 70.0416591 232.250847 31.3004332 240.570546 31.3004332C246.733287 31.3004332 251.495404 33.0231992 254.856899 36.4687312 258.218393 39.9142632 259.899141 44.6903869 259.899141 50.7971022 259.899141 56.9038175 258.218393 61.6379225 254.856899 64.9994172 251.495404 68.3609118 246.733287 70.0416591 240.570546 70.0416591L240.570546 70.0416591zM291.080185 80.0421058L291.080185 55.2510826 309.820517 55.2510826 309.820517 45.922935 291.080185 45.922935 291.080185 30.8802463 315.535058 30.8802463 315.535058 21.3840239 279.314953 21.3840239 279.314953 80.0421058 291.080185 80.0421058zM335.619989 80.0421058L335.619989 21.3840239 323.854758 21.3840239 323.854758 80.0421058 335.619989 80.0421058z"/>
  </g>
</svg>
